<svg width="240" height="72" viewBox="0 0 240 72" fill="none" xmlns="http://www.w3.org/2000/svg">
<rect width="240" height="72" rx="8" fill="#221538"/>
<path d="M94.892 47.444H89.798L88.898 50H86.216L90.896 37.436H93.794L98.456 50H95.774L94.892 47.444ZM94.208 45.518L92.336 40.154L90.464 45.518H94.208ZM105.784 39.902C106.624 39.902 107.38 40.106 108.052 40.514C108.724 40.922 109.246 41.516 109.618 42.296C110.002 43.064 110.194 43.97 110.194 45.014C110.194 46.058 110.002 46.97 109.618 47.75C109.246 48.518 108.724 49.106 108.052 49.514C107.38 49.922 106.624 50.126 105.784 50.126C104.944 50.126 104.224 49.928 103.624 49.532C103.036 49.124 102.616 48.584 102.364 47.912V54.752H99.8258V40.028H102.364V42.098C102.616 41.426 103.036 40.892 103.624 40.496C104.224 40.1 104.944 39.902 105.784 39.902ZM104.992 42.116C104.224 42.116 103.588 42.38 103.084 42.908C102.592 43.424 102.346 44.126 102.346 45.014C102.346 45.89 102.592 46.592 103.084 47.12C103.588 47.636 104.224 47.894 104.992 47.894C105.784 47.894 106.42 47.642 106.9 47.138C107.38 46.622 107.62 45.914 107.62 45.014C107.62 44.114 107.38 43.406 106.9 42.89C106.42 42.374 105.784 42.116 104.992 42.116ZM117.948 39.902C118.788 39.902 119.544 40.106 120.216 40.514C120.888 40.922 121.41 41.516 121.782 42.296C122.166 43.064 122.358 43.97 122.358 45.014C122.358 46.058 122.166 46.97 121.782 47.75C121.41 48.518 120.888 49.106 120.216 49.514C119.544 49.922 118.788 50.126 117.948 50.126C117.108 50.126 116.388 49.928 115.788 49.532C115.2 49.124 114.78 48.584 114.528 47.912V54.752H111.99V40.028H114.528V42.098C114.78 41.426 115.2 40.892 115.788 40.496C116.388 40.1 117.108 39.902 117.948 39.902ZM117.156 42.116C116.388 42.116 115.752 42.38 115.248 42.908C114.756 43.424 114.51 44.126 114.51 45.014C114.51 45.89 114.756 46.592 115.248 47.12C115.752 47.636 116.388 47.894 117.156 47.894C117.948 47.894 118.584 47.642 119.064 47.138C119.544 46.622 119.784 45.914 119.784 45.014C119.784 44.114 119.544 43.406 119.064 42.89C118.584 42.374 117.948 42.116 117.156 42.116ZM136.804 46.526C136.804 47.174 136.642 47.774 136.318 48.326C135.994 48.866 135.514 49.304 134.878 49.64C134.242 49.964 133.468 50.126 132.556 50.126C131.656 50.126 130.852 49.976 130.144 49.676C129.436 49.364 128.866 48.92 128.434 48.344C128.014 47.768 127.774 47.096 127.714 46.328H130.414C130.474 46.844 130.678 47.276 131.026 47.624C131.386 47.96 131.86 48.128 132.448 48.128C132.976 48.128 133.378 47.99 133.654 47.714C133.942 47.426 134.086 47.06 134.086 46.616C134.086 46.22 133.972 45.896 133.744 45.644C133.516 45.38 133.228 45.17 132.88 45.014C132.532 44.858 132.052 44.678 131.44 44.474C130.648 44.21 130 43.952 129.496 43.7C128.992 43.436 128.56 43.058 128.2 42.566C127.852 42.074 127.678 41.432 127.678 40.64C127.678 39.548 128.068 38.69 128.848 38.066C129.64 37.43 130.684 37.112 131.98 37.112C133.324 37.112 134.392 37.436 135.184 38.084C135.988 38.732 136.444 39.596 136.552 40.676H133.816C133.744 40.22 133.552 39.848 133.24 39.56C132.928 39.26 132.502 39.11 131.962 39.11C131.494 39.11 131.116 39.236 130.828 39.488C130.54 39.728 130.396 40.082 130.396 40.55C130.396 40.922 130.504 41.234 130.72 41.486C130.948 41.726 131.23 41.924 131.566 42.08C131.914 42.236 132.382 42.41 132.97 42.602C133.786 42.89 134.446 43.16 134.95 43.412C135.466 43.664 135.904 44.042 136.264 44.546C136.624 45.05 136.804 45.71 136.804 46.526ZM144.001 47.822V50H142.669C141.553 50 140.695 49.73 140.095 49.19C139.507 48.65 139.213 47.75 139.213 46.49V42.17H137.827V40.028H139.213V37.562H141.751V40.028H143.983V42.17H141.751V46.526C141.751 47.006 141.847 47.342 142.039 47.534C142.231 47.726 142.555 47.822 143.011 47.822H144.001ZM150.436 39.902C151.408 39.902 152.278 40.106 153.046 40.514C153.826 40.922 154.438 41.516 154.882 42.296C155.326 43.064 155.548 43.97 155.548 45.014C155.548 46.058 155.326 46.964 154.882 47.732C154.438 48.5 153.826 49.094 153.046 49.514C152.278 49.922 151.408 50.126 150.436 50.126C149.464 50.126 148.588 49.922 147.808 49.514C147.04 49.094 146.434 48.5 145.99 47.732C145.546 46.964 145.324 46.058 145.324 45.014C145.324 43.97 145.546 43.064 145.99 42.296C146.434 41.516 147.04 40.922 147.808 40.514C148.588 40.106 149.464 39.902 150.436 39.902ZM150.436 42.098C149.728 42.098 149.128 42.35 148.636 42.854C148.144 43.346 147.898 44.066 147.898 45.014C147.898 45.962 148.144 46.688 148.636 47.192C149.128 47.684 149.728 47.93 150.436 47.93C151.144 47.93 151.744 47.684 152.236 47.192C152.728 46.688 152.974 45.962 152.974 45.014C152.974 44.066 152.728 43.346 152.236 42.854C151.744 42.35 151.144 42.098 150.436 42.098ZM159.879 41.936C160.251 41.3 160.743 40.802 161.355 40.442C161.967 40.07 162.651 39.884 163.407 39.884V42.602H162.669C160.809 42.602 159.879 43.466 159.879 45.194V50H157.341V40.028H159.879V41.936ZM174.19 44.636C174.19 44.888 174.16 45.176 174.1 45.5H166.792C166.828 46.388 167.068 47.042 167.512 47.462C167.956 47.882 168.508 48.092 169.168 48.092C169.756 48.092 170.242 47.948 170.626 47.66C171.022 47.372 171.274 46.982 171.382 46.49H174.064C173.932 47.186 173.65 47.81 173.218 48.362C172.786 48.914 172.228 49.346 171.544 49.658C170.872 49.97 170.122 50.126 169.294 50.126C168.322 50.126 167.458 49.922 166.702 49.514C165.946 49.094 165.358 48.5 164.938 47.732C164.518 46.964 164.308 46.058 164.308 45.014C164.308 43.97 164.518 43.064 164.938 42.296C165.358 41.516 165.946 40.922 166.702 40.514C167.458 40.106 168.322 39.902 169.294 39.902C170.278 39.902 171.136 40.106 171.868 40.514C172.612 40.922 173.182 41.486 173.578 42.206C173.986 42.914 174.19 43.724 174.19 44.636ZM171.634 44.384C171.67 43.568 171.454 42.95 170.986 42.53C170.53 42.11 169.966 41.9 169.294 41.9C168.61 41.9 168.034 42.11 167.566 42.53C167.098 42.95 166.84 43.568 166.792 44.384H171.634Z" fill="white"/>
<path d="M89.85 19.88C90.71 19.88 91.42 20.0933 91.98 20.52C92.54 20.94 92.9267 21.5167 93.14 22.25H92.18C92 21.7833 91.71 21.4133 91.31 21.14C90.91 20.86 90.42 20.72 89.84 20.72C89.38 20.72 88.9667 20.8333 88.6 21.06C88.24 21.28 87.9533 21.6 87.74 22.02C87.5333 22.4333 87.43 22.92 87.43 23.48C87.43 24.0333 87.5333 24.5167 87.74 24.93C87.9533 25.3433 88.24 25.6633 88.6 25.89C88.9667 26.11 89.38 26.22 89.84 26.22C90.42 26.22 90.91 26.0833 91.31 25.81C91.71 25.53 92 25.1567 92.18 24.69H93.14C92.9267 25.4233 92.54 26.0033 91.98 26.43C91.42 26.85 90.71 27.06 89.85 27.06C89.19 27.06 88.6067 26.91 88.1 26.61C87.5933 26.3033 87.1967 25.88 86.91 25.34C86.63 24.7933 86.49 24.1733 86.49 23.48C86.49 22.78 86.63 22.1567 86.91 21.61C87.1967 21.0633 87.5933 20.64 88.1 20.34C88.6067 20.0333 89.19 19.88 89.85 19.88ZM97.587 19.86C98.2403 19.86 98.827 20.0133 99.347 20.32C99.8736 20.6267 100.287 21.0567 100.587 21.61C100.887 22.1567 101.037 22.7767 101.037 23.47C101.037 24.1633 100.887 24.7867 100.587 25.34C100.287 25.8867 99.8736 26.3133 99.347 26.62C98.827 26.9267 98.2403 27.08 97.587 27.08C96.9336 27.08 96.3403 26.9267 95.807 26.62C95.2803 26.3133 94.867 25.8867 94.567 25.34C94.267 24.7867 94.117 24.1633 94.117 23.47C94.117 22.7767 94.267 22.1567 94.567 21.61C94.867 21.0567 95.2803 20.6267 95.807 20.32C96.3403 20.0133 96.9336 19.86 97.587 19.86ZM97.587 20.71C97.1003 20.71 96.6636 20.8233 96.277 21.05C95.897 21.27 95.597 21.59 95.377 22.01C95.1636 22.4233 95.057 22.91 95.057 23.47C95.057 24.0233 95.1636 24.51 95.377 24.93C95.597 25.35 95.897 25.6733 96.277 25.9C96.6636 26.12 97.1003 26.23 97.587 26.23C98.067 26.23 98.497 26.1167 98.877 25.89C99.2636 25.6633 99.5636 25.3433 99.777 24.93C99.997 24.51 100.107 24.0233 100.107 23.47C100.107 22.91 99.997 22.4233 99.777 22.01C99.5636 21.59 99.2636 21.27 98.877 21.05C98.497 20.8233 98.067 20.71 97.587 20.71ZM109.327 20.07V27H108.417V21.47L106.207 27H105.397L103.177 21.49V27H102.267V20.07H103.357L105.817 25.89L108.237 20.07H109.327ZM111.693 19.95V27H110.783V19.95H111.693ZM118.636 27H117.726L114.066 21.43V27H113.156V19.95H114.066L117.726 25.53V19.95H118.636V27ZM123.299 19.88C124.119 19.88 124.806 20.0833 125.359 20.49C125.919 20.8967 126.296 21.45 126.489 22.15H125.529C125.362 21.7233 125.082 21.38 124.689 21.12C124.302 20.86 123.842 20.73 123.309 20.73C122.829 20.73 122.399 20.8433 122.019 21.07C121.639 21.29 121.339 21.6067 121.119 22.02C120.906 22.4333 120.799 22.92 120.799 23.48C120.799 24.0533 120.909 24.55 121.129 24.97C121.349 25.3833 121.652 25.7033 122.039 25.93C122.432 26.15 122.882 26.26 123.389 26.26C123.822 26.26 124.219 26.1667 124.579 25.98C124.939 25.7933 125.232 25.5233 125.459 25.17C125.692 24.81 125.832 24.39 125.879 23.91H123.109V23.23H126.649V24.07C126.589 24.63 126.416 25.1367 126.129 25.59C125.842 26.0433 125.456 26.4033 124.969 26.67C124.482 26.9367 123.929 27.07 123.309 27.07C122.629 27.07 122.029 26.92 121.509 26.62C120.989 26.3133 120.582 25.89 120.289 25.35C120.002 24.8033 119.859 24.18 119.859 23.48C119.859 22.78 120.002 22.16 120.289 21.62C120.582 21.0733 120.989 20.6467 121.509 20.34C122.029 20.0333 122.626 19.88 123.299 19.88ZM134.813 25.17C134.813 25.5033 134.733 25.8133 134.573 26.1C134.413 26.3867 134.17 26.62 133.843 26.8C133.516 26.98 133.113 27.07 132.633 27.07C132.166 27.07 131.75 26.9867 131.383 26.82C131.023 26.6467 130.733 26.4133 130.513 26.12C130.3 25.82 130.176 25.48 130.143 25.1H131.113C131.133 25.3 131.2 25.4967 131.313 25.69C131.433 25.8767 131.6 26.0333 131.813 26.16C132.033 26.28 132.296 26.34 132.603 26.34C133.003 26.34 133.31 26.2333 133.523 26.02C133.736 25.8067 133.843 25.5333 133.843 25.2C133.843 24.9133 133.766 24.68 133.613 24.5C133.466 24.32 133.283 24.18 133.063 24.08C132.843 23.9733 132.543 23.86 132.163 23.74C131.716 23.5933 131.356 23.4567 131.083 23.33C130.816 23.1967 130.586 23 130.393 22.74C130.206 22.48 130.113 22.1367 130.113 21.71C130.113 21.3433 130.2 21.02 130.373 20.74C130.553 20.46 130.806 20.2433 131.133 20.09C131.466 19.9367 131.856 19.86 132.303 19.86C132.996 19.86 133.546 20.03 133.953 20.37C134.36 20.7033 134.596 21.13 134.663 21.65H133.683C133.63 21.37 133.486 21.1233 133.253 20.91C133.02 20.6967 132.703 20.59 132.303 20.59C131.936 20.59 131.643 20.6867 131.423 20.88C131.203 21.0667 131.093 21.3333 131.093 21.68C131.093 21.9533 131.163 22.1767 131.303 22.35C131.45 22.5167 131.63 22.65 131.843 22.75C132.056 22.8433 132.35 22.95 132.723 23.07C133.176 23.2167 133.54 23.3567 133.813 23.49C134.093 23.6233 134.33 23.8267 134.523 24.1C134.716 24.3667 134.813 24.7233 134.813 25.17ZM139.267 19.86C139.92 19.86 140.507 20.0133 141.027 20.32C141.553 20.6267 141.967 21.0567 142.267 21.61C142.567 22.1567 142.717 22.7767 142.717 23.47C142.717 24.1633 142.567 24.7867 142.267 25.34C141.967 25.8867 141.553 26.3133 141.027 26.62C140.507 26.9267 139.92 27.08 139.267 27.08C138.613 27.08 138.02 26.9267 137.487 26.62C136.96 26.3133 136.547 25.8867 136.247 25.34C135.947 24.7867 135.797 24.1633 135.797 23.47C135.797 22.7767 135.947 22.1567 136.247 21.61C136.547 21.0567 136.96 20.6267 137.487 20.32C138.02 20.0133 138.613 19.86 139.267 19.86ZM139.267 20.71C138.78 20.71 138.343 20.8233 137.957 21.05C137.577 21.27 137.277 21.59 137.057 22.01C136.843 22.4233 136.737 22.91 136.737 23.47C136.737 24.0233 136.843 24.51 137.057 24.93C137.277 25.35 137.577 25.6733 137.957 25.9C138.343 26.12 138.78 26.23 139.267 26.23C139.747 26.23 140.177 26.1167 140.557 25.89C140.943 25.6633 141.243 25.3433 141.457 24.93C141.677 24.51 141.787 24.0233 141.787 23.47C141.787 22.91 141.677 22.4233 141.457 22.01C141.243 21.59 140.943 21.27 140.557 21.05C140.177 20.8233 139.747 20.71 139.267 20.71ZM147.177 19.86C147.83 19.86 148.417 20.0133 148.937 20.32C149.463 20.6267 149.877 21.0567 150.177 21.61C150.477 22.1567 150.627 22.7767 150.627 23.47C150.627 24.1633 150.477 24.7867 150.177 25.34C149.877 25.8867 149.463 26.3133 148.937 26.62C148.417 26.9267 147.83 27.08 147.177 27.08C146.523 27.08 145.93 26.9267 145.397 26.62C144.87 26.3133 144.457 25.8867 144.157 25.34C143.857 24.7867 143.707 24.1633 143.707 23.47C143.707 22.7767 143.857 22.1567 144.157 21.61C144.457 21.0567 144.87 20.6267 145.397 20.32C145.93 20.0133 146.523 19.86 147.177 19.86ZM147.177 20.71C146.69 20.71 146.253 20.8233 145.867 21.05C145.487 21.27 145.187 21.59 144.967 22.01C144.753 22.4233 144.647 22.91 144.647 23.47C144.647 24.0233 144.753 24.51 144.967 24.93C145.187 25.35 145.487 25.6733 145.867 25.9C146.253 26.12 146.69 26.23 147.177 26.23C147.657 26.23 148.087 26.1167 148.467 25.89C148.853 25.6633 149.153 25.3433 149.367 24.93C149.587 24.51 149.697 24.0233 149.697 23.47C149.697 22.91 149.587 22.4233 149.367 22.01C149.153 21.59 148.853 21.27 148.467 21.05C148.087 20.8233 147.657 20.71 147.177 20.71ZM157.337 27H156.427L152.767 21.43V27H151.857V19.95H152.767L156.427 25.53V19.95H157.337V27ZM165.591 19.95V20.69H163.601V27H162.691V20.69H160.701V19.95H165.591ZM169.726 19.86C170.379 19.86 170.966 20.0133 171.486 20.32C172.012 20.6267 172.426 21.0567 172.726 21.61C173.026 22.1567 173.176 22.7767 173.176 23.47C173.176 24.1633 173.026 24.7867 172.726 25.34C172.426 25.8867 172.012 26.3133 171.486 26.62C170.966 26.9267 170.379 27.08 169.726 27.08C169.072 27.08 168.479 26.9267 167.946 26.62C167.419 26.3133 167.006 25.8867 166.706 25.34C166.406 24.7867 166.256 24.1633 166.256 23.47C166.256 22.7767 166.406 22.1567 166.706 21.61C167.006 21.0567 167.419 20.6267 167.946 20.32C168.479 20.0133 169.072 19.86 169.726 19.86ZM169.726 20.71C169.239 20.71 168.802 20.8233 168.416 21.05C168.036 21.27 167.736 21.59 167.516 22.01C167.302 22.4233 167.196 22.91 167.196 23.47C167.196 24.0233 167.302 24.51 167.516 24.93C167.736 25.35 168.036 25.6733 168.416 25.9C168.802 26.12 169.239 26.23 169.726 26.23C170.206 26.23 170.636 26.1167 171.016 25.89C171.402 25.6633 171.702 25.3433 171.916 24.93C172.136 24.51 172.246 24.0233 172.246 23.47C172.246 22.91 172.136 22.4233 171.916 22.01C171.702 21.59 171.402 21.27 171.016 21.05C170.636 20.8233 170.206 20.71 169.726 20.71ZM181.196 19.95V20.69H179.206V27H178.296V20.69H176.306V19.95H181.196ZM187.511 19.95V27H186.591V23.74H183.011V27H182.101V19.95H183.011V23H186.591V19.95H187.511ZM189.876 20.69V23.1H192.556V23.8H189.876V26.26H192.856V27H188.966V19.95H192.856V20.69H189.876Z" fill="white"/>
<path d="M66.0252 37.8694C66.0252 35.3919 67.1636 33.584 69.3732 32.1778C68.101 30.3699 66.2261 29.4325 63.7486 29.2316C61.3381 29.0307 58.7267 30.5708 57.7892 30.5708C56.7849 30.5708 54.5082 29.2986 52.7003 29.2986C48.9506 29.3655 45 32.2448 45 38.2042C45 39.9451 45.2678 41.753 45.9374 43.6279C46.8079 46.1054 49.888 52.1317 53.1021 51.9978C54.7761 51.9978 55.9813 50.7925 58.191 50.7925C60.3337 50.7925 61.405 51.9978 63.2799 51.9978C66.5609 51.9978 69.3732 46.5071 70.1767 44.0296C65.8244 41.9539 66.0252 38.0033 66.0252 37.8694ZM62.2755 26.888C64.0834 24.7453 63.8825 22.7366 63.8825 22C62.2755 22.1339 60.4007 23.1383 59.3293 24.3436C58.124 25.6828 57.4544 27.3568 57.5884 29.1647C59.3293 29.2986 60.9363 28.4281 62.2755 26.888Z" fill="white"/>
</svg>
