<svg width="280" height="64" viewBox="0 0 280 64" fill="none" xmlns="http://www.w3.org/2000/svg">
<rect width="280" height="64" rx="8" fill="#221538"/>
<path d="M114.892 43.444H109.798L108.898 46H106.216L110.896 33.436H113.794L118.456 46H115.774L114.892 43.444ZM114.208 41.518L112.336 36.154L110.464 41.518H114.208ZM125.784 35.902C126.624 35.902 127.38 36.106 128.052 36.514C128.724 36.922 129.246 37.516 129.618 38.296C130.002 39.064 130.194 39.97 130.194 41.014C130.194 42.058 130.002 42.97 129.618 43.75C129.246 44.518 128.724 45.106 128.052 45.514C127.38 45.922 126.624 46.126 125.784 46.126C124.944 46.126 124.224 45.928 123.624 45.532C123.036 45.124 122.616 44.584 122.364 43.912V50.752H119.826V36.028H122.364V38.098C122.616 37.426 123.036 36.892 123.624 36.496C124.224 36.1 124.944 35.902 125.784 35.902ZM124.992 38.116C124.224 38.116 123.588 38.38 123.084 38.908C122.592 39.424 122.346 40.126 122.346 41.014C122.346 41.89 122.592 42.592 123.084 43.12C123.588 43.636 124.224 43.894 124.992 43.894C125.784 43.894 126.42 43.642 126.9 43.138C127.38 42.622 127.62 41.914 127.62 41.014C127.62 40.114 127.38 39.406 126.9 38.89C126.42 38.374 125.784 38.116 124.992 38.116ZM137.948 35.902C138.788 35.902 139.544 36.106 140.216 36.514C140.888 36.922 141.41 37.516 141.782 38.296C142.166 39.064 142.358 39.97 142.358 41.014C142.358 42.058 142.166 42.97 141.782 43.75C141.41 44.518 140.888 45.106 140.216 45.514C139.544 45.922 138.788 46.126 137.948 46.126C137.108 46.126 136.388 45.928 135.788 45.532C135.2 45.124 134.78 44.584 134.528 43.912V50.752H131.99V36.028H134.528V38.098C134.78 37.426 135.2 36.892 135.788 36.496C136.388 36.1 137.108 35.902 137.948 35.902ZM137.156 38.116C136.388 38.116 135.752 38.38 135.248 38.908C134.756 39.424 134.51 40.126 134.51 41.014C134.51 41.89 134.756 42.592 135.248 43.12C135.752 43.636 136.388 43.894 137.156 43.894C137.948 43.894 138.584 43.642 139.064 43.138C139.544 42.622 139.784 41.914 139.784 41.014C139.784 40.114 139.544 39.406 139.064 38.89C138.584 38.374 137.948 38.116 137.156 38.116ZM156.804 42.526C156.804 43.174 156.642 43.774 156.318 44.326C155.994 44.866 155.514 45.304 154.878 45.64C154.242 45.964 153.468 46.126 152.556 46.126C151.656 46.126 150.852 45.976 150.144 45.676C149.436 45.364 148.866 44.92 148.434 44.344C148.014 43.768 147.774 43.096 147.714 42.328H150.414C150.474 42.844 150.678 43.276 151.026 43.624C151.386 43.96 151.86 44.128 152.448 44.128C152.976 44.128 153.378 43.99 153.654 43.714C153.942 43.426 154.086 43.06 154.086 42.616C154.086 42.22 153.972 41.896 153.744 41.644C153.516 41.38 153.228 41.17 152.88 41.014C152.532 40.858 152.052 40.678 151.44 40.474C150.648 40.21 150 39.952 149.496 39.7C148.992 39.436 148.56 39.058 148.2 38.566C147.852 38.074 147.678 37.432 147.678 36.64C147.678 35.548 148.068 34.69 148.848 34.066C149.64 33.43 150.684 33.112 151.98 33.112C153.324 33.112 154.392 33.436 155.184 34.084C155.988 34.732 156.444 35.596 156.552 36.676H153.816C153.744 36.22 153.552 35.848 153.24 35.56C152.928 35.26 152.502 35.11 151.962 35.11C151.494 35.11 151.116 35.236 150.828 35.488C150.54 35.728 150.396 36.082 150.396 36.55C150.396 36.922 150.504 37.234 150.72 37.486C150.948 37.726 151.23 37.924 151.566 38.08C151.914 38.236 152.382 38.41 152.97 38.602C153.786 38.89 154.446 39.16 154.95 39.412C155.466 39.664 155.904 40.042 156.264 40.546C156.624 41.05 156.804 41.71 156.804 42.526ZM164.001 43.822V46H162.669C161.553 46 160.695 45.73 160.095 45.19C159.507 44.65 159.213 43.75 159.213 42.49V38.17H157.827V36.028H159.213V33.562H161.751V36.028H163.983V38.17H161.751V42.526C161.751 43.006 161.847 43.342 162.039 43.534C162.231 43.726 162.555 43.822 163.011 43.822H164.001ZM170.436 35.902C171.408 35.902 172.278 36.106 173.046 36.514C173.826 36.922 174.438 37.516 174.882 38.296C175.326 39.064 175.548 39.97 175.548 41.014C175.548 42.058 175.326 42.964 174.882 43.732C174.438 44.5 173.826 45.094 173.046 45.514C172.278 45.922 171.408 46.126 170.436 46.126C169.464 46.126 168.588 45.922 167.808 45.514C167.04 45.094 166.434 44.5 165.99 43.732C165.546 42.964 165.324 42.058 165.324 41.014C165.324 39.97 165.546 39.064 165.99 38.296C166.434 37.516 167.04 36.922 167.808 36.514C168.588 36.106 169.464 35.902 170.436 35.902ZM170.436 38.098C169.728 38.098 169.128 38.35 168.636 38.854C168.144 39.346 167.898 40.066 167.898 41.014C167.898 41.962 168.144 42.688 168.636 43.192C169.128 43.684 169.728 43.93 170.436 43.93C171.144 43.93 171.744 43.684 172.236 43.192C172.728 42.688 172.974 41.962 172.974 41.014C172.974 40.066 172.728 39.346 172.236 38.854C171.744 38.35 171.144 38.098 170.436 38.098ZM179.879 37.936C180.251 37.3 180.743 36.802 181.355 36.442C181.967 36.07 182.651 35.884 183.407 35.884V38.602H182.669C180.809 38.602 179.879 39.466 179.879 41.194V46H177.341V36.028H179.879V37.936ZM194.19 40.636C194.19 40.888 194.16 41.176 194.1 41.5H186.792C186.828 42.388 187.068 43.042 187.512 43.462C187.956 43.882 188.508 44.092 189.168 44.092C189.756 44.092 190.242 43.948 190.626 43.66C191.022 43.372 191.274 42.982 191.382 42.49H194.064C193.932 43.186 193.65 43.81 193.218 44.362C192.786 44.914 192.228 45.346 191.544 45.658C190.872 45.97 190.122 46.126 189.294 46.126C188.322 46.126 187.458 45.922 186.702 45.514C185.946 45.094 185.358 44.5 184.938 43.732C184.518 42.964 184.308 42.058 184.308 41.014C184.308 39.97 184.518 39.064 184.938 38.296C185.358 37.516 185.946 36.922 186.702 36.514C187.458 36.106 188.322 35.902 189.294 35.902C190.278 35.902 191.136 36.106 191.868 36.514C192.612 36.922 193.182 37.486 193.578 38.206C193.986 38.914 194.19 39.724 194.19 40.636ZM191.634 40.384C191.67 39.568 191.454 38.95 190.986 38.53C190.53 38.11 189.966 37.9 189.294 37.9C188.61 37.9 188.034 38.11 187.566 38.53C187.098 38.95 186.84 39.568 186.792 40.384H191.634Z" fill="white"/>
<path d="M109.85 15.88C110.71 15.88 111.42 16.0933 111.98 16.52C112.54 16.94 112.927 17.5167 113.14 18.25H112.18C112 17.7833 111.71 17.4133 111.31 17.14C110.91 16.86 110.42 16.72 109.84 16.72C109.38 16.72 108.967 16.8333 108.6 17.06C108.24 17.28 107.953 17.6 107.74 18.02C107.533 18.4333 107.43 18.92 107.43 19.48C107.43 20.0333 107.533 20.5167 107.74 20.93C107.953 21.3433 108.24 21.6633 108.6 21.89C108.967 22.11 109.38 22.22 109.84 22.22C110.42 22.22 110.91 22.0833 111.31 21.81C111.71 21.53 112 21.1567 112.18 20.69H113.14C112.927 21.4233 112.54 22.0033 111.98 22.43C111.42 22.85 110.71 23.06 109.85 23.06C109.19 23.06 108.607 22.91 108.1 22.61C107.593 22.3033 107.197 21.88 106.91 21.34C106.63 20.7933 106.49 20.1733 106.49 19.48C106.49 18.78 106.63 18.1567 106.91 17.61C107.197 17.0633 107.593 16.64 108.1 16.34C108.607 16.0333 109.19 15.88 109.85 15.88ZM117.587 15.86C118.24 15.86 118.827 16.0133 119.347 16.32C119.874 16.6267 120.287 17.0567 120.587 17.61C120.887 18.1567 121.037 18.7767 121.037 19.47C121.037 20.1633 120.887 20.7867 120.587 21.34C120.287 21.8867 119.874 22.3133 119.347 22.62C118.827 22.9267 118.24 23.08 117.587 23.08C116.934 23.08 116.34 22.9267 115.807 22.62C115.28 22.3133 114.867 21.8867 114.567 21.34C114.267 20.7867 114.117 20.1633 114.117 19.47C114.117 18.7767 114.267 18.1567 114.567 17.61C114.867 17.0567 115.28 16.6267 115.807 16.32C116.34 16.0133 116.934 15.86 117.587 15.86ZM117.587 16.71C117.1 16.71 116.664 16.8233 116.277 17.05C115.897 17.27 115.597 17.59 115.377 18.01C115.164 18.4233 115.057 18.91 115.057 19.47C115.057 20.0233 115.164 20.51 115.377 20.93C115.597 21.35 115.897 21.6733 116.277 21.9C116.664 22.12 117.1 22.23 117.587 22.23C118.067 22.23 118.497 22.1167 118.877 21.89C119.264 21.6633 119.564 21.3433 119.777 20.93C119.997 20.51 120.107 20.0233 120.107 19.47C120.107 18.91 119.997 18.4233 119.777 18.01C119.564 17.59 119.264 17.27 118.877 17.05C118.497 16.8233 118.067 16.71 117.587 16.71ZM129.327 16.07V23H128.417V17.47L126.207 23H125.397L123.177 17.49V23H122.267V16.07H123.357L125.817 21.89L128.237 16.07H129.327ZM131.693 15.95V23H130.783V15.95H131.693ZM138.636 23H137.726L134.066 17.43V23H133.156V15.95H134.066L137.726 21.53V15.95H138.636V23ZM143.299 15.88C144.119 15.88 144.806 16.0833 145.359 16.49C145.919 16.8967 146.296 17.45 146.489 18.15H145.529C145.362 17.7233 145.082 17.38 144.689 17.12C144.302 16.86 143.842 16.73 143.309 16.73C142.829 16.73 142.399 16.8433 142.019 17.07C141.639 17.29 141.339 17.6067 141.119 18.02C140.906 18.4333 140.799 18.92 140.799 19.48C140.799 20.0533 140.909 20.55 141.129 20.97C141.349 21.3833 141.652 21.7033 142.039 21.93C142.432 22.15 142.882 22.26 143.389 22.26C143.822 22.26 144.219 22.1667 144.579 21.98C144.939 21.7933 145.232 21.5233 145.459 21.17C145.692 20.81 145.832 20.39 145.879 19.91H143.109V19.23H146.649V20.07C146.589 20.63 146.416 21.1367 146.129 21.59C145.842 22.0433 145.456 22.4033 144.969 22.67C144.482 22.9367 143.929 23.07 143.309 23.07C142.629 23.07 142.029 22.92 141.509 22.62C140.989 22.3133 140.582 21.89 140.289 21.35C140.002 20.8033 139.859 20.18 139.859 19.48C139.859 18.78 140.002 18.16 140.289 17.62C140.582 17.0733 140.989 16.6467 141.509 16.34C142.029 16.0333 142.626 15.88 143.299 15.88ZM154.813 21.17C154.813 21.5033 154.733 21.8133 154.573 22.1C154.413 22.3867 154.17 22.62 153.843 22.8C153.516 22.98 153.113 23.07 152.633 23.07C152.166 23.07 151.75 22.9867 151.383 22.82C151.023 22.6467 150.733 22.4133 150.513 22.12C150.3 21.82 150.176 21.48 150.143 21.1H151.113C151.133 21.3 151.2 21.4967 151.313 21.69C151.433 21.8767 151.6 22.0333 151.813 22.16C152.033 22.28 152.296 22.34 152.603 22.34C153.003 22.34 153.31 22.2333 153.523 22.02C153.736 21.8067 153.843 21.5333 153.843 21.2C153.843 20.9133 153.766 20.68 153.613 20.5C153.466 20.32 153.283 20.18 153.063 20.08C152.843 19.9733 152.543 19.86 152.163 19.74C151.716 19.5933 151.356 19.4567 151.083 19.33C150.816 19.1967 150.586 19 150.393 18.74C150.206 18.48 150.113 18.1367 150.113 17.71C150.113 17.3433 150.2 17.02 150.373 16.74C150.553 16.46 150.806 16.2433 151.133 16.09C151.466 15.9367 151.856 15.86 152.303 15.86C152.996 15.86 153.546 16.03 153.953 16.37C154.36 16.7033 154.596 17.13 154.663 17.65H153.683C153.63 17.37 153.486 17.1233 153.253 16.91C153.02 16.6967 152.703 16.59 152.303 16.59C151.936 16.59 151.643 16.6867 151.423 16.88C151.203 17.0667 151.093 17.3333 151.093 17.68C151.093 17.9533 151.163 18.1767 151.303 18.35C151.45 18.5167 151.63 18.65 151.843 18.75C152.056 18.8433 152.35 18.95 152.723 19.07C153.176 19.2167 153.54 19.3567 153.813 19.49C154.093 19.6233 154.33 19.8267 154.523 20.1C154.716 20.3667 154.813 20.7233 154.813 21.17ZM159.267 15.86C159.92 15.86 160.507 16.0133 161.027 16.32C161.553 16.6267 161.967 17.0567 162.267 17.61C162.567 18.1567 162.717 18.7767 162.717 19.47C162.717 20.1633 162.567 20.7867 162.267 21.34C161.967 21.8867 161.553 22.3133 161.027 22.62C160.507 22.9267 159.92 23.08 159.267 23.08C158.613 23.08 158.02 22.9267 157.487 22.62C156.96 22.3133 156.547 21.8867 156.247 21.34C155.947 20.7867 155.797 20.1633 155.797 19.47C155.797 18.7767 155.947 18.1567 156.247 17.61C156.547 17.0567 156.96 16.6267 157.487 16.32C158.02 16.0133 158.613 15.86 159.267 15.86ZM159.267 16.71C158.78 16.71 158.343 16.8233 157.957 17.05C157.577 17.27 157.277 17.59 157.057 18.01C156.843 18.4233 156.737 18.91 156.737 19.47C156.737 20.0233 156.843 20.51 157.057 20.93C157.277 21.35 157.577 21.6733 157.957 21.9C158.343 22.12 158.78 22.23 159.267 22.23C159.747 22.23 160.177 22.1167 160.557 21.89C160.943 21.6633 161.243 21.3433 161.457 20.93C161.677 20.51 161.787 20.0233 161.787 19.47C161.787 18.91 161.677 18.4233 161.457 18.01C161.243 17.59 160.943 17.27 160.557 17.05C160.177 16.8233 159.747 16.71 159.267 16.71ZM167.177 15.86C167.83 15.86 168.417 16.0133 168.937 16.32C169.463 16.6267 169.877 17.0567 170.177 17.61C170.477 18.1567 170.627 18.7767 170.627 19.47C170.627 20.1633 170.477 20.7867 170.177 21.34C169.877 21.8867 169.463 22.3133 168.937 22.62C168.417 22.9267 167.83 23.08 167.177 23.08C166.523 23.08 165.93 22.9267 165.397 22.62C164.87 22.3133 164.457 21.8867 164.157 21.34C163.857 20.7867 163.707 20.1633 163.707 19.47C163.707 18.7767 163.857 18.1567 164.157 17.61C164.457 17.0567 164.87 16.6267 165.397 16.32C165.93 16.0133 166.523 15.86 167.177 15.86ZM167.177 16.71C166.69 16.71 166.253 16.8233 165.867 17.05C165.487 17.27 165.187 17.59 164.967 18.01C164.753 18.4233 164.647 18.91 164.647 19.47C164.647 20.0233 164.753 20.51 164.967 20.93C165.187 21.35 165.487 21.6733 165.867 21.9C166.253 22.12 166.69 22.23 167.177 22.23C167.657 22.23 168.087 22.1167 168.467 21.89C168.853 21.6633 169.153 21.3433 169.367 20.93C169.587 20.51 169.697 20.0233 169.697 19.47C169.697 18.91 169.587 18.4233 169.367 18.01C169.153 17.59 168.853 17.27 168.467 17.05C168.087 16.8233 167.657 16.71 167.177 16.71ZM177.337 23H176.427L172.767 17.43V23H171.857V15.95H172.767L176.427 21.53V15.95H177.337V23ZM185.591 15.95V16.69H183.601V23H182.691V16.69H180.701V15.95H185.591ZM189.726 15.86C190.379 15.86 190.966 16.0133 191.486 16.32C192.012 16.6267 192.426 17.0567 192.726 17.61C193.026 18.1567 193.176 18.7767 193.176 19.47C193.176 20.1633 193.026 20.7867 192.726 21.34C192.426 21.8867 192.012 22.3133 191.486 22.62C190.966 22.9267 190.379 23.08 189.726 23.08C189.072 23.08 188.479 22.9267 187.946 22.62C187.419 22.3133 187.006 21.8867 186.706 21.34C186.406 20.7867 186.256 20.1633 186.256 19.47C186.256 18.7767 186.406 18.1567 186.706 17.61C187.006 17.0567 187.419 16.6267 187.946 16.32C188.479 16.0133 189.072 15.86 189.726 15.86ZM189.726 16.71C189.239 16.71 188.802 16.8233 188.416 17.05C188.036 17.27 187.736 17.59 187.516 18.01C187.302 18.4233 187.196 18.91 187.196 19.47C187.196 20.0233 187.302 20.51 187.516 20.93C187.736 21.35 188.036 21.6733 188.416 21.9C188.802 22.12 189.239 22.23 189.726 22.23C190.206 22.23 190.636 22.1167 191.016 21.89C191.402 21.6633 191.702 21.3433 191.916 20.93C192.136 20.51 192.246 20.0233 192.246 19.47C192.246 18.91 192.136 18.4233 191.916 18.01C191.702 17.59 191.402 17.27 191.016 17.05C190.636 16.8233 190.206 16.71 189.726 16.71ZM201.196 15.95V16.69H199.206V23H198.296V16.69H196.306V15.95H201.196ZM207.511 15.95V23H206.591V19.74H203.011V23H202.101V15.95H203.011V19H206.591V15.95H207.511ZM209.876 16.69V19.1H212.556V19.8H209.876V22.26H212.856V23H208.966V15.95H212.856V16.69H209.876Z" fill="white"/>
<path d="M86.0252 33.8694C86.0252 31.3919 87.1636 29.584 89.3732 28.1778C88.101 26.3699 86.2261 25.4325 83.7486 25.2316C81.3381 25.0307 78.7267 26.5708 77.7892 26.5708C76.7849 26.5708 74.5082 25.2986 72.7003 25.2986C68.9506 25.3655 65 28.2448 65 34.2042C65 35.9451 65.2678 37.753 65.9374 39.6279C66.8079 42.1054 69.888 48.1317 73.1021 47.9978C74.7761 47.9978 75.9813 46.7925 78.191 46.7925C80.3337 46.7925 81.405 47.9978 83.2799 47.9978C86.5609 47.9978 89.3732 42.5071 90.1767 40.0296C85.8244 37.9539 86.0252 34.0033 86.0252 33.8694ZM82.2755 22.888C84.0834 20.7453 83.8825 18.7366 83.8825 18C82.2755 18.1339 80.4007 19.1383 79.3293 20.3436C78.124 21.6828 77.4544 23.3568 77.5884 25.1647C79.3293 25.2986 80.9363 24.4281 82.2755 22.888Z" fill="white"/>
</svg>
