<svg width="240" height="72" viewBox="0 0 240 72" fill="none" xmlns="http://www.w3.org/2000/svg">
<rect width="240" height="72" rx="8" fill="#221538"/>
<path d="M94.038 37.166C95.586 37.166 96.87 37.55 97.89 38.318C98.91 39.074 99.564 40.1 99.852 41.396H97.188C96.936 40.82 96.534 40.364 95.982 40.028C95.442 39.68 94.8 39.506 94.056 39.506C93.324 39.506 92.676 39.674 92.112 40.01C91.548 40.346 91.11 40.826 90.798 41.45C90.486 42.074 90.33 42.806 90.33 43.646C90.33 44.978 90.684 46.016 91.392 46.76C92.112 47.504 93.09 47.876 94.326 47.876C95.238 47.876 96.018 47.606 96.666 47.066C97.326 46.526 97.752 45.776 97.944 44.816H93.642V42.998H100.068V45.446C99.888 46.286 99.534 47.06 99.006 47.768C98.49 48.476 97.806 49.046 96.954 49.478C96.114 49.898 95.148 50.108 94.056 50.108C92.808 50.108 91.704 49.838 90.744 49.298C89.796 48.746 89.058 47.984 88.53 47.012C88.014 46.028 87.756 44.906 87.756 43.646C87.756 42.386 88.014 41.27 88.53 40.298C89.058 39.314 89.796 38.546 90.744 37.994C91.692 37.442 92.79 37.166 94.038 37.166ZM106.576 39.902C107.548 39.902 108.418 40.106 109.186 40.514C109.966 40.922 110.578 41.516 111.022 42.296C111.466 43.064 111.688 43.97 111.688 45.014C111.688 46.058 111.466 46.964 111.022 47.732C110.578 48.5 109.966 49.094 109.186 49.514C108.418 49.922 107.548 50.126 106.576 50.126C105.604 50.126 104.728 49.922 103.948 49.514C103.18 49.094 102.574 48.5 102.13 47.732C101.686 46.964 101.464 46.058 101.464 45.014C101.464 43.97 101.686 43.064 102.13 42.296C102.574 41.516 103.18 40.922 103.948 40.514C104.728 40.106 105.604 39.902 106.576 39.902ZM106.576 42.098C105.868 42.098 105.268 42.35 104.776 42.854C104.284 43.346 104.038 44.066 104.038 45.014C104.038 45.962 104.284 46.688 104.776 47.192C105.268 47.684 105.868 47.93 106.576 47.93C107.284 47.93 107.884 47.684 108.376 47.192C108.868 46.688 109.114 45.962 109.114 45.014C109.114 44.066 108.868 43.346 108.376 42.854C107.884 42.35 107.284 42.098 106.576 42.098ZM118.09 39.902C119.062 39.902 119.932 40.106 120.7 40.514C121.48 40.922 122.092 41.516 122.536 42.296C122.98 43.064 123.202 43.97 123.202 45.014C123.202 46.058 122.98 46.964 122.536 47.732C122.092 48.5 121.48 49.094 120.7 49.514C119.932 49.922 119.062 50.126 118.09 50.126C117.118 50.126 116.242 49.922 115.462 49.514C114.694 49.094 114.088 48.5 113.644 47.732C113.2 46.964 112.978 46.058 112.978 45.014C112.978 43.97 113.2 43.064 113.644 42.296C114.088 41.516 114.694 40.922 115.462 40.514C116.242 40.106 117.118 39.902 118.09 39.902ZM118.09 42.098C117.382 42.098 116.782 42.35 116.29 42.854C115.798 43.346 115.552 44.066 115.552 45.014C115.552 45.962 115.798 46.688 116.29 47.192C116.782 47.684 117.382 47.93 118.09 47.93C118.798 47.93 119.398 47.684 119.89 47.192C120.382 46.688 120.628 45.962 120.628 45.014C120.628 44.066 120.382 43.346 119.89 42.854C119.398 42.35 118.798 42.098 118.09 42.098ZM128.902 39.902C129.742 39.902 130.462 40.1 131.062 40.496C131.662 40.892 132.088 41.426 132.34 42.098V40.028H134.86V50.036C134.86 50.96 134.674 51.788 134.302 52.52C133.942 53.264 133.396 53.846 132.664 54.266C131.944 54.686 131.068 54.896 130.036 54.896C128.596 54.896 127.432 54.554 126.544 53.87C125.656 53.186 125.116 52.256 124.924 51.08H127.426C127.57 51.584 127.846 51.974 128.254 52.25C128.674 52.538 129.208 52.682 129.856 52.682C130.6 52.682 131.2 52.46 131.656 52.016C132.112 51.584 132.34 50.924 132.34 50.036V47.912C132.088 48.584 131.662 49.124 131.062 49.532C130.462 49.928 129.742 50.126 128.902 50.126C128.062 50.126 127.306 49.922 126.634 49.514C125.962 49.106 125.434 48.518 125.05 47.75C124.678 46.97 124.492 46.058 124.492 45.014C124.492 43.97 124.678 43.064 125.05 42.296C125.434 41.516 125.962 40.922 126.634 40.514C127.306 40.106 128.062 39.902 128.902 39.902ZM129.694 42.116C128.902 42.116 128.266 42.374 127.786 42.89C127.306 43.406 127.066 44.114 127.066 45.014C127.066 45.914 127.306 46.622 127.786 47.138C128.266 47.642 128.902 47.894 129.694 47.894C130.462 47.894 131.092 47.636 131.584 47.12C132.088 46.592 132.34 45.89 132.34 45.014C132.34 44.126 132.088 43.424 131.584 42.908C131.092 42.38 130.462 42.116 129.694 42.116ZM139.698 36.68V50H137.16V36.68H139.698ZM151.372 44.636C151.372 44.888 151.342 45.176 151.282 45.5H143.974C144.01 46.388 144.25 47.042 144.694 47.462C145.138 47.882 145.69 48.092 146.35 48.092C146.938 48.092 147.424 47.948 147.808 47.66C148.204 47.372 148.456 46.982 148.564 46.49H151.246C151.114 47.186 150.832 47.81 150.4 48.362C149.968 48.914 149.41 49.346 148.726 49.658C148.054 49.97 147.304 50.126 146.476 50.126C145.504 50.126 144.64 49.922 143.884 49.514C143.128 49.094 142.54 48.5 142.12 47.732C141.7 46.964 141.49 46.058 141.49 45.014C141.49 43.97 141.7 43.064 142.12 42.296C142.54 41.516 143.128 40.922 143.884 40.514C144.64 40.106 145.504 39.902 146.476 39.902C147.46 39.902 148.318 40.106 149.05 40.514C149.794 40.922 150.364 41.486 150.76 42.206C151.168 42.914 151.372 43.724 151.372 44.636ZM148.816 44.384C148.852 43.568 148.636 42.95 148.168 42.53C147.712 42.11 147.148 41.9 146.476 41.9C145.792 41.9 145.216 42.11 144.748 42.53C144.28 42.95 144.022 43.568 143.974 44.384H148.816ZM159.631 45.284V50H157.093V37.292H161.719C163.219 37.292 164.347 37.652 165.103 38.372C165.871 39.092 166.255 40.07 166.255 41.306C166.255 42.518 165.859 43.484 165.067 44.204C164.287 44.924 163.171 45.284 161.719 45.284H159.631ZM161.449 43.25C162.937 43.25 163.681 42.602 163.681 41.306C163.681 40.67 163.507 40.184 163.159 39.848C162.811 39.512 162.241 39.344 161.449 39.344H159.631V43.25H161.449ZM170.442 36.68V50H167.904V36.68H170.442ZM176.644 39.902C177.484 39.902 178.204 40.1 178.804 40.496C179.404 40.892 179.83 41.426 180.082 42.098V40.028H182.602V50H180.082V47.912C179.83 48.584 179.404 49.124 178.804 49.532C178.204 49.928 177.484 50.126 176.644 50.126C175.804 50.126 175.048 49.922 174.376 49.514C173.704 49.106 173.176 48.518 172.792 47.75C172.42 46.97 172.234 46.058 172.234 45.014C172.234 43.97 172.42 43.064 172.792 42.296C173.176 41.516 173.704 40.922 174.376 40.514C175.048 40.106 175.804 39.902 176.644 39.902ZM177.436 42.116C176.644 42.116 176.008 42.374 175.528 42.89C175.048 43.406 174.808 44.114 174.808 45.014C174.808 45.914 175.048 46.622 175.528 47.138C176.008 47.642 176.644 47.894 177.436 47.894C178.204 47.894 178.834 47.636 179.326 47.12C179.83 46.592 180.082 45.89 180.082 45.014C180.082 44.126 179.83 43.424 179.326 42.908C178.834 42.38 178.204 42.116 177.436 42.116ZM186.612 40.028L189.33 46.796L191.85 40.028H194.64L188.538 54.752H185.73L187.98 49.712L183.786 40.028H186.612Z" fill="white"/>
<path d="M90.85 19.88C91.71 19.88 92.42 20.0933 92.98 20.52C93.54 20.94 93.9267 21.5167 94.14 22.25H93.18C93 21.7833 92.71 21.4133 92.31 21.14C91.91 20.86 91.42 20.72 90.84 20.72C90.38 20.72 89.9667 20.8333 89.6 21.06C89.24 21.28 88.9533 21.6 88.74 22.02C88.5333 22.4333 88.43 22.92 88.43 23.48C88.43 24.0333 88.5333 24.5167 88.74 24.93C88.9533 25.3433 89.24 25.6633 89.6 25.89C89.9667 26.11 90.38 26.22 90.84 26.22C91.42 26.22 91.91 26.0833 92.31 25.81C92.71 25.53 93 25.1567 93.18 24.69H94.14C93.9267 25.4233 93.54 26.0033 92.98 26.43C92.42 26.85 91.71 27.06 90.85 27.06C90.19 27.06 89.6067 26.91 89.1 26.61C88.5933 26.3033 88.1967 25.88 87.91 25.34C87.63 24.7933 87.49 24.1733 87.49 23.48C87.49 22.78 87.63 22.1567 87.91 21.61C88.1967 21.0633 88.5933 20.64 89.1 20.34C89.6067 20.0333 90.19 19.88 90.85 19.88ZM98.587 19.86C99.2403 19.86 99.827 20.0133 100.347 20.32C100.874 20.6267 101.287 21.0567 101.587 21.61C101.887 22.1567 102.037 22.7767 102.037 23.47C102.037 24.1633 101.887 24.7867 101.587 25.34C101.287 25.8867 100.874 26.3133 100.347 26.62C99.827 26.9267 99.2403 27.08 98.587 27.08C97.9336 27.08 97.3403 26.9267 96.807 26.62C96.2803 26.3133 95.867 25.8867 95.567 25.34C95.267 24.7867 95.117 24.1633 95.117 23.47C95.117 22.7767 95.267 22.1567 95.567 21.61C95.867 21.0567 96.2803 20.6267 96.807 20.32C97.3403 20.0133 97.9336 19.86 98.587 19.86ZM98.587 20.71C98.1003 20.71 97.6636 20.8233 97.277 21.05C96.897 21.27 96.597 21.59 96.377 22.01C96.1636 22.4233 96.057 22.91 96.057 23.47C96.057 24.0233 96.1636 24.51 96.377 24.93C96.597 25.35 96.897 25.6733 97.277 25.9C97.6636 26.12 98.1003 26.23 98.587 26.23C99.067 26.23 99.497 26.1167 99.877 25.89C100.264 25.6633 100.564 25.3433 100.777 24.93C100.997 24.51 101.107 24.0233 101.107 23.47C101.107 22.91 100.997 22.4233 100.777 22.01C100.564 21.59 100.264 21.27 99.877 21.05C99.497 20.8233 99.067 20.71 98.587 20.71ZM110.327 20.07V27H109.417V21.47L107.207 27H106.397L104.177 21.49V27H103.267V20.07H104.357L106.817 25.89L109.237 20.07H110.327ZM112.693 19.95V27H111.783V19.95H112.693ZM119.636 27H118.726L115.066 21.43V27H114.156V19.95H115.066L118.726 25.53V19.95H119.636V27ZM124.299 19.88C125.119 19.88 125.806 20.0833 126.359 20.49C126.919 20.8967 127.296 21.45 127.489 22.15H126.529C126.362 21.7233 126.082 21.38 125.689 21.12C125.302 20.86 124.842 20.73 124.309 20.73C123.829 20.73 123.399 20.8433 123.019 21.07C122.639 21.29 122.339 21.6067 122.119 22.02C121.906 22.4333 121.799 22.92 121.799 23.48C121.799 24.0533 121.909 24.55 122.129 24.97C122.349 25.3833 122.652 25.7033 123.039 25.93C123.432 26.15 123.882 26.26 124.389 26.26C124.822 26.26 125.219 26.1667 125.579 25.98C125.939 25.7933 126.232 25.5233 126.459 25.17C126.692 24.81 126.832 24.39 126.879 23.91H124.109V23.23H127.649V24.07C127.589 24.63 127.416 25.1367 127.129 25.59C126.842 26.0433 126.456 26.4033 125.969 26.67C125.482 26.9367 124.929 27.07 124.309 27.07C123.629 27.07 123.029 26.92 122.509 26.62C121.989 26.3133 121.582 25.89 121.289 25.35C121.002 24.8033 120.859 24.18 120.859 23.48C120.859 22.78 121.002 22.16 121.289 21.62C121.582 21.0733 121.989 20.6467 122.509 20.34C123.029 20.0333 123.626 19.88 124.299 19.88ZM135.813 25.17C135.813 25.5033 135.733 25.8133 135.573 26.1C135.413 26.3867 135.17 26.62 134.843 26.8C134.516 26.98 134.113 27.07 133.633 27.07C133.166 27.07 132.75 26.9867 132.383 26.82C132.023 26.6467 131.733 26.4133 131.513 26.12C131.3 25.82 131.176 25.48 131.143 25.1H132.113C132.133 25.3 132.2 25.4967 132.313 25.69C132.433 25.8767 132.6 26.0333 132.813 26.16C133.033 26.28 133.296 26.34 133.603 26.34C134.003 26.34 134.31 26.2333 134.523 26.02C134.736 25.8067 134.843 25.5333 134.843 25.2C134.843 24.9133 134.766 24.68 134.613 24.5C134.466 24.32 134.283 24.18 134.063 24.08C133.843 23.9733 133.543 23.86 133.163 23.74C132.716 23.5933 132.356 23.4567 132.083 23.33C131.816 23.1967 131.586 23 131.393 22.74C131.206 22.48 131.113 22.1367 131.113 21.71C131.113 21.3433 131.2 21.02 131.373 20.74C131.553 20.46 131.806 20.2433 132.133 20.09C132.466 19.9367 132.856 19.86 133.303 19.86C133.996 19.86 134.546 20.03 134.953 20.37C135.36 20.7033 135.596 21.13 135.663 21.65H134.683C134.63 21.37 134.486 21.1233 134.253 20.91C134.02 20.6967 133.703 20.59 133.303 20.59C132.936 20.59 132.643 20.6867 132.423 20.88C132.203 21.0667 132.093 21.3333 132.093 21.68C132.093 21.9533 132.163 22.1767 132.303 22.35C132.45 22.5167 132.63 22.65 132.843 22.75C133.056 22.8433 133.35 22.95 133.723 23.07C134.176 23.2167 134.54 23.3567 134.813 23.49C135.093 23.6233 135.33 23.8267 135.523 24.1C135.716 24.3667 135.813 24.7233 135.813 25.17ZM140.267 19.86C140.92 19.86 141.507 20.0133 142.027 20.32C142.553 20.6267 142.967 21.0567 143.267 21.61C143.567 22.1567 143.717 22.7767 143.717 23.47C143.717 24.1633 143.567 24.7867 143.267 25.34C142.967 25.8867 142.553 26.3133 142.027 26.62C141.507 26.9267 140.92 27.08 140.267 27.08C139.613 27.08 139.02 26.9267 138.487 26.62C137.96 26.3133 137.547 25.8867 137.247 25.34C136.947 24.7867 136.797 24.1633 136.797 23.47C136.797 22.7767 136.947 22.1567 137.247 21.61C137.547 21.0567 137.96 20.6267 138.487 20.32C139.02 20.0133 139.613 19.86 140.267 19.86ZM140.267 20.71C139.78 20.71 139.343 20.8233 138.957 21.05C138.577 21.27 138.277 21.59 138.057 22.01C137.843 22.4233 137.737 22.91 137.737 23.47C137.737 24.0233 137.843 24.51 138.057 24.93C138.277 25.35 138.577 25.6733 138.957 25.9C139.343 26.12 139.78 26.23 140.267 26.23C140.747 26.23 141.177 26.1167 141.557 25.89C141.943 25.6633 142.243 25.3433 142.457 24.93C142.677 24.51 142.787 24.0233 142.787 23.47C142.787 22.91 142.677 22.4233 142.457 22.01C142.243 21.59 141.943 21.27 141.557 21.05C141.177 20.8233 140.747 20.71 140.267 20.71ZM148.177 19.86C148.83 19.86 149.417 20.0133 149.937 20.32C150.463 20.6267 150.877 21.0567 151.177 21.61C151.477 22.1567 151.627 22.7767 151.627 23.47C151.627 24.1633 151.477 24.7867 151.177 25.34C150.877 25.8867 150.463 26.3133 149.937 26.62C149.417 26.9267 148.83 27.08 148.177 27.08C147.523 27.08 146.93 26.9267 146.397 26.62C145.87 26.3133 145.457 25.8867 145.157 25.34C144.857 24.7867 144.707 24.1633 144.707 23.47C144.707 22.7767 144.857 22.1567 145.157 21.61C145.457 21.0567 145.87 20.6267 146.397 20.32C146.93 20.0133 147.523 19.86 148.177 19.86ZM148.177 20.71C147.69 20.71 147.253 20.8233 146.867 21.05C146.487 21.27 146.187 21.59 145.967 22.01C145.753 22.4233 145.647 22.91 145.647 23.47C145.647 24.0233 145.753 24.51 145.967 24.93C146.187 25.35 146.487 25.6733 146.867 25.9C147.253 26.12 147.69 26.23 148.177 26.23C148.657 26.23 149.087 26.1167 149.467 25.89C149.853 25.6633 150.153 25.3433 150.367 24.93C150.587 24.51 150.697 24.0233 150.697 23.47C150.697 22.91 150.587 22.4233 150.367 22.01C150.153 21.59 149.853 21.27 149.467 21.05C149.087 20.8233 148.657 20.71 148.177 20.71ZM158.337 27H157.427L153.767 21.43V27H152.857V19.95H153.767L157.427 25.53V19.95H158.337V27ZM166.591 19.95V20.69H164.601V27H163.691V20.69H161.701V19.95H166.591ZM170.726 19.86C171.379 19.86 171.966 20.0133 172.486 20.32C173.012 20.6267 173.426 21.0567 173.726 21.61C174.026 22.1567 174.176 22.7767 174.176 23.47C174.176 24.1633 174.026 24.7867 173.726 25.34C173.426 25.8867 173.012 26.3133 172.486 26.62C171.966 26.9267 171.379 27.08 170.726 27.08C170.072 27.08 169.479 26.9267 168.946 26.62C168.419 26.3133 168.006 25.8867 167.706 25.34C167.406 24.7867 167.256 24.1633 167.256 23.47C167.256 22.7767 167.406 22.1567 167.706 21.61C168.006 21.0567 168.419 20.6267 168.946 20.32C169.479 20.0133 170.072 19.86 170.726 19.86ZM170.726 20.71C170.239 20.71 169.802 20.8233 169.416 21.05C169.036 21.27 168.736 21.59 168.516 22.01C168.302 22.4233 168.196 22.91 168.196 23.47C168.196 24.0233 168.302 24.51 168.516 24.93C168.736 25.35 169.036 25.6733 169.416 25.9C169.802 26.12 170.239 26.23 170.726 26.23C171.206 26.23 171.636 26.1167 172.016 25.89C172.402 25.6633 172.702 25.3433 172.916 24.93C173.136 24.51 173.246 24.0233 173.246 23.47C173.246 22.91 173.136 22.4233 172.916 22.01C172.702 21.59 172.402 21.27 172.016 21.05C171.636 20.8233 171.206 20.71 170.726 20.71ZM182.196 19.95V20.69H180.206V27H179.296V20.69H177.306V19.95H182.196ZM188.511 19.95V27H187.591V23.74H184.011V27H183.101V19.95H184.011V23H187.591V19.95H188.511ZM190.876 20.69V23.1H193.556V23.8H190.876V26.26H193.856V27H189.966V19.95H193.856V20.69H190.876Z" fill="white"/>
<path d="M61.6523 35.7695L65.168 32.2539L48.7031 22.7617L61.6523 35.7695ZM45.3633 22C44.6016 22.4102 44.0742 23.1719 44.0742 24.1094V49.9492C44.0742 50.8867 44.6016 51.6484 45.3633 52L60.3633 37L45.3633 22ZM70.2656 35.2422L66.8086 33.25L62.9414 37L66.8086 40.8086L70.3242 38.8164C71.3789 37.9961 71.3789 36.0625 70.2656 35.2422ZM48.7031 51.2383L65.168 41.8047L61.6523 38.2891L48.7031 51.2383Z" fill="white"/>
</svg>
