<svg xmlns="http://www.w3.org/2000/svg" width="278" height="64" viewBox="0 0 278 64" fill="none">
<path d="M270.093 14.1831C272.205 14.1831 273.899 14.7164 275.174 15.7829C276.45 16.8494 277.245 18.2714 277.558 20.0489H273.418C273.25 19.2124 272.874 18.5432 272.288 18.0413C271.703 17.5394 270.94 17.2885 269.999 17.2885C269.246 17.2885 268.66 17.4663 268.242 17.8218C267.824 18.1773 267.615 18.6582 267.615 19.2647C267.615 19.7456 267.782 20.1325 268.117 20.4253C268.451 20.718 268.869 20.9481 269.371 21.1154C269.873 21.2826 270.595 21.4813 271.536 21.7113C272.853 22.0041 273.92 22.3178 274.735 22.6524C275.572 22.966 276.283 23.4784 276.868 24.1894C277.475 24.8795 277.778 25.8205 277.778 27.0125C277.778 28.4972 277.192 29.6996 276.021 30.6197C274.871 31.5399 273.313 31.9999 271.347 31.9999C269.089 31.9999 267.28 31.498 265.921 30.4943C264.562 29.4696 263.736 28.0162 263.443 26.1342H267.677C267.782 26.9916 268.158 27.6712 268.807 28.1731C269.455 28.654 270.302 28.8945 271.347 28.8945C272.1 28.8945 272.675 28.7168 273.073 28.3613C273.47 27.9849 273.669 27.5039 273.669 26.9184C273.669 26.4165 273.491 26.0087 273.135 25.695C272.801 25.3814 272.372 25.1409 271.849 24.9736C271.347 24.8063 270.626 24.6076 269.685 24.3776C268.388 24.0848 267.332 23.7921 266.517 23.4993C265.722 23.1856 265.032 22.6942 264.447 22.025C263.882 21.3558 263.6 20.4357 263.6 19.2647C263.6 17.759 264.175 16.5357 265.325 15.5946C266.475 14.6536 268.064 14.1831 270.093 14.1831Z" fill="#221538"/>
<path d="M249.946 14.1834C251.41 14.1834 252.654 14.5285 253.679 15.2185C254.724 15.9086 255.477 16.8392 255.937 18.0103V8.5686H260.329V31.7806H255.937V28.142C255.477 29.3131 254.724 30.2541 253.679 30.9651C252.654 31.6552 251.41 32.0002 249.946 32.0002C248.482 32.0002 247.165 31.6447 245.994 30.9337C244.822 30.2227 243.902 29.198 243.233 27.8597C242.585 26.5004 242.261 24.9111 242.261 23.0918C242.261 21.2725 242.585 19.6937 243.233 18.3553C243.902 16.996 244.822 15.9609 245.994 15.2499C247.165 14.5389 248.482 14.1834 249.946 14.1834ZM251.326 18.0416C249.946 18.0416 248.837 18.4912 248.001 19.3904C247.165 20.2896 246.746 21.5234 246.746 23.0918C246.746 24.6602 247.165 25.894 248.001 26.7932C248.837 27.6715 249.946 28.1106 251.326 28.1106C252.664 28.1106 253.762 27.661 254.62 26.7618C255.498 25.8417 255.937 24.6184 255.937 23.0918C255.937 21.5443 255.498 20.321 254.62 19.4218C253.762 18.5017 252.664 18.0416 251.326 18.0416Z" fill="#221538"/>
<path d="M232.896 14.1519C234.903 14.1519 236.503 14.8106 237.695 16.128C238.887 17.4455 239.483 19.2961 239.483 21.6801V31.7805H235.091V22.182C235.091 20.8018 234.736 19.7353 234.025 18.9825C233.314 18.2087 232.341 17.8219 231.108 17.8219C229.853 17.8219 228.849 18.2296 228.096 19.0452C227.343 19.8608 226.967 21.0318 226.967 22.5584V31.7805H222.544V14.4028H226.967V17.8846C227.427 16.7135 228.18 15.8039 229.225 15.1556C230.292 14.4864 231.515 14.1519 232.896 14.1519Z" fill="#221538"/>
<path d="M219.64 22.4328C219.64 22.8719 219.587 23.3738 219.483 23.9384H206.748C206.81 25.4859 207.229 26.6256 208.002 27.3575C208.776 28.0894 209.738 28.4554 210.888 28.4554C211.913 28.4554 212.76 28.2044 213.429 27.7026C214.119 27.2007 214.558 26.521 214.746 25.6637H219.42C219.19 26.8765 218.699 27.964 217.946 28.9259C217.193 29.8878 216.221 30.6407 215.029 31.1844C213.858 31.7281 212.551 31.9999 211.108 31.9999C209.414 31.9999 207.908 31.6444 206.591 30.9334C205.273 30.2015 204.249 29.1664 203.517 27.828C202.785 26.4897 202.419 24.9108 202.419 23.0915C202.419 21.2722 202.785 19.6934 203.517 18.355C204.249 16.9957 205.273 15.9606 206.591 15.2496C207.908 14.5386 209.414 14.1831 211.108 14.1831C212.823 14.1831 214.318 14.5386 215.593 15.2496C216.89 15.9606 217.883 16.9435 218.573 18.1982C219.284 19.432 219.64 20.8435 219.64 22.4328ZM215.186 21.9936C215.248 20.5716 214.872 19.4947 214.056 18.7628C213.262 18.0309 212.279 17.6649 211.108 17.6649C209.916 17.6649 208.912 18.0309 208.096 18.7628C207.281 19.4947 206.831 20.5716 206.748 21.9936H215.186Z" fill="#221538"/>
<path d="M194.607 9.41531C194.607 8.70431 194.858 8.12923 195.36 7.69009C195.862 7.23003 196.52 7 197.336 7C198.151 7 198.81 7.23003 199.312 7.69009C199.814 8.12923 200.065 8.70431 200.065 9.41531C200.065 10.1054 199.814 10.6805 199.312 11.1405C198.81 11.5797 198.151 11.7992 197.336 11.7992C196.52 11.7992 195.862 11.5797 195.36 11.1405C194.858 10.6805 194.607 10.1054 194.607 9.41531ZM199.532 14.4028V31.7804H195.109V14.4028H199.532Z" fill="#221538"/>
<path d="M186.748 17.7278C187.396 16.6194 188.254 15.7516 189.32 15.1243C190.387 14.476 191.579 14.1519 192.896 14.1519V18.8884H191.61C188.369 18.8884 186.748 20.394 186.748 23.4053V31.7805H182.325V14.4028H186.748V17.7278Z" fill="#221538"/>
<path d="M179.574 9.63501V13.1482H170.258V19.0767H177.723V22.4644H170.258V31.7806H165.835V9.63501H179.574Z" fill="#221538"/>
<path d="M151.679 14.1834C153.143 14.1834 154.388 14.5285 155.412 15.2185C156.458 15.9086 157.211 16.8392 157.671 18.0103V8.5686H162.062V31.7806H157.671V28.142C157.211 29.3131 156.458 30.2541 155.412 30.9651C154.388 31.6552 153.143 32.0002 151.679 32.0002C150.216 32.0002 148.898 31.6447 147.727 30.9337C146.556 30.2227 145.636 29.198 144.967 27.8597C144.319 26.5004 143.994 24.9111 143.994 23.0918C143.994 21.2725 144.319 19.6937 144.967 18.3553C145.636 16.996 146.556 15.9609 147.727 15.2499C148.898 14.5389 150.216 14.1834 151.679 14.1834ZM153.06 18.0416C151.679 18.0416 150.571 18.4912 149.735 19.3904C148.898 20.2896 148.48 21.5234 148.48 23.0918C148.48 24.6602 148.898 25.894 149.735 26.7932C150.571 27.6715 151.679 28.1106 153.06 28.1106C154.398 28.1106 155.496 27.661 156.353 26.7618C157.232 25.8417 157.671 24.6184 157.671 23.0918C157.671 21.5443 157.232 20.321 156.353 19.4218C155.496 18.5017 154.398 18.0416 153.06 18.0416Z" fill="#221538"/>
<path d="M134.629 14.1519C136.637 14.1519 138.236 14.8106 139.428 16.128C140.62 17.4455 141.216 19.2961 141.216 21.6801V31.7805H136.825V22.182C136.825 20.8018 136.469 19.7353 135.758 18.9825C135.047 18.2087 134.075 17.8219 132.841 17.8219C131.586 17.8219 130.583 18.2296 129.83 19.0452C129.077 19.8608 128.701 21.0318 128.701 22.5584V31.7805H124.278V14.4028H128.701V17.8846C129.161 16.7135 129.914 15.8039 130.959 15.1556C132.026 14.4864 133.249 14.1519 134.629 14.1519Z" fill="#221538"/>
<path d="M110.122 14.1831C111.586 14.1831 112.841 14.5281 113.886 15.2182C114.932 15.9083 115.674 16.8389 116.114 18.01V14.4027H120.505V31.7803H116.114V28.1417C115.674 29.3128 114.932 30.2538 113.886 30.9648C112.841 31.6549 111.586 31.9999 110.122 31.9999C108.659 31.9999 107.341 31.6444 106.17 30.9334C104.999 30.2224 104.079 29.1977 103.41 27.8594C102.761 26.5001 102.437 24.9108 102.437 23.0915C102.437 21.2722 102.761 19.6934 103.41 18.355C104.079 16.9957 104.999 15.9606 106.17 15.2496C107.341 14.5386 108.659 14.1831 110.122 14.1831ZM111.503 18.0413C110.122 18.0413 109.014 18.4909 108.178 19.3901C107.341 20.2893 106.923 21.5231 106.923 23.0915C106.923 24.6599 107.341 25.8937 108.178 26.7929C109.014 27.6712 110.122 28.1103 111.503 28.1103C112.841 28.1103 113.939 27.6607 114.796 26.7615C115.674 25.8414 116.114 24.6181 116.114 23.0915C116.114 21.544 115.674 20.3207 114.796 19.4215C113.939 18.5014 112.841 18.0413 111.503 18.0413Z" fill="#221538"/>
<path d="M94.9548 17.7278C95.6031 16.6194 96.4605 15.7516 97.527 15.1243C98.5935 14.476 99.7854 14.1519 101.103 14.1519V18.8884H99.8168C96.5755 18.8884 94.9548 20.394 94.9548 23.4053V31.7805H90.532V14.4028H94.9548V17.7278Z" fill="#221538"/>
<path d="M76.9473 9.41553C79.6449 9.41553 81.8825 10.0847 83.66 11.4231C85.4375 12.7405 86.5772 14.5285 87.079 16.7869H82.4366C81.9975 15.7832 81.2969 14.9885 80.335 14.403C79.394 13.7965 78.2752 13.4933 76.9787 13.4933C75.7031 13.4933 74.5738 13.7861 73.591 14.3716C72.6081 14.9571 71.8448 15.7936 71.3011 16.881C70.7574 17.9684 70.4856 19.2441 70.4856 20.7079C70.4856 23.0291 71.1025 24.8379 72.3363 26.1345C73.591 27.431 75.2953 28.0793 77.4492 28.0793C79.0385 28.0793 80.3977 27.6088 81.527 26.6677C82.6771 25.7267 83.4195 24.4197 83.7541 22.7468H76.2572V19.5786H87.4555V23.8446C87.1418 25.3085 86.5249 26.6573 85.6048 27.8911C84.7056 29.1249 83.5136 30.1182 82.0289 30.871C80.565 31.6029 78.8816 31.9689 76.9787 31.9689C74.8038 31.9689 72.88 31.4983 71.207 30.5573C69.555 29.5954 68.2689 28.2675 67.3488 26.5736C66.4496 24.8589 66 22.9036 66 20.7079C66 18.5121 66.4496 16.5673 67.3488 14.8735C68.2689 13.1587 69.555 11.8204 71.207 10.8584C72.8591 9.8965 74.7725 9.41553 76.9473 9.41553Z" fill="#221538"/>
<path d="M268.329 44.9062C269.362 44.9062 270.187 45.1724 270.804 45.7047C271.432 46.2263 271.815 46.9289 271.954 47.8124H270.229C270.155 47.3334 269.947 46.9502 269.606 46.6627C269.276 46.3647 268.835 46.2156 268.281 46.2156C267.823 46.2156 267.467 46.3274 267.211 46.551C266.966 46.7639 266.844 47.0566 266.844 47.4292C266.844 47.706 266.934 47.9295 267.115 48.0999C267.296 48.2702 267.52 48.4033 267.786 48.4991C268.063 48.5949 268.451 48.7013 268.952 48.8184C269.612 48.9675 270.144 49.1218 270.549 49.2815C270.964 49.4412 271.315 49.6967 271.602 50.048C271.901 50.3886 272.05 50.857 272.05 51.4532C272.05 52.1877 271.767 52.7838 271.203 53.2416C270.65 53.6993 269.899 53.9282 268.952 53.9282C267.855 53.9282 266.966 53.6727 266.285 53.1617C265.614 52.6508 265.21 51.9375 265.072 51.022H266.844C266.897 51.5011 267.11 51.8896 267.483 52.1877C267.855 52.4858 268.345 52.6348 268.952 52.6348C269.388 52.6348 269.729 52.523 269.974 52.2995C270.229 52.0653 270.357 51.7725 270.357 51.4212C270.357 51.1125 270.261 50.8677 270.07 50.6867C269.878 50.5057 269.638 50.3673 269.351 50.2715C269.064 50.1651 268.67 50.0586 268.169 49.9522C267.531 49.8031 267.009 49.6541 266.604 49.5051C266.211 49.356 265.87 49.1165 265.583 48.7865C265.306 48.4458 265.167 47.9881 265.167 47.4132C265.167 46.6681 265.444 46.0666 265.998 45.6088C266.562 45.1404 267.339 44.9062 268.329 44.9062Z" fill="#8B8A8E"/>
<path d="M261.121 46.7423C261.419 46.1674 261.845 45.715 262.398 45.385C262.952 45.0443 263.591 44.874 264.314 44.874V46.8541H263.771C262.973 46.8541 262.329 47.051 261.839 47.4449C261.36 47.8281 261.121 48.4668 261.121 49.361V53.8161H259.3V45.0177H261.121V46.7423Z" fill="#8B8A8E"/>
<path d="M257.782 48.9941C257.782 49.2921 257.761 49.553 257.718 49.7765H250.948C250.98 50.6814 251.23 51.352 251.698 51.7885C252.167 52.2249 252.747 52.4432 253.439 52.4432C254.046 52.4432 254.557 52.2888 254.972 51.9801C255.398 51.6714 255.659 51.2615 255.754 50.7506H257.702C257.585 51.368 257.341 51.9162 256.968 52.3953C256.595 52.8743 256.111 53.2522 255.515 53.529C254.919 53.7951 254.253 53.9282 253.519 53.9282C252.667 53.9282 251.911 53.7472 251.251 53.3853C250.602 53.0234 250.091 52.5017 249.718 51.8204C249.346 51.1391 249.16 50.3354 249.16 49.4092C249.16 48.4937 249.346 47.6953 249.718 47.014C250.091 46.3327 250.602 45.8111 251.251 45.4492C251.911 45.0872 252.667 44.9062 253.519 44.9062C254.381 44.9062 255.132 45.0872 255.77 45.4492C256.42 45.8005 256.915 46.2901 257.255 46.9182C257.607 47.5357 257.782 48.2276 257.782 48.9941ZM255.946 48.9462C255.967 48.3713 255.866 47.8923 255.643 47.509C255.43 47.1152 255.132 46.8277 254.748 46.6468C254.376 46.4552 253.966 46.3593 253.519 46.3593C252.806 46.3593 252.209 46.5776 251.73 47.014C251.251 47.4505 250.991 48.0945 250.948 48.9462H255.946Z" fill="#8B8A8E"/>
<path d="M248.141 52.2355V53.8164H247.023C246.086 53.8164 245.373 53.5928 244.883 53.1457C244.404 52.6879 244.165 51.9321 244.165 50.8782V46.5668H242.903V45.0179H244.165V42.8303H246.001V45.0179H248.125V46.5668H246.001V50.9102C246.001 51.4105 246.092 51.7565 246.273 51.9481C246.464 52.1397 246.794 52.2355 247.263 52.2355H248.141Z" fill="#8B8A8E"/>
<path d="M242.252 52.2355V53.8164H241.134C240.197 53.8164 239.484 53.5928 238.995 53.1457C238.516 52.6879 238.276 51.9321 238.276 50.8782V46.5668H237.015V45.0179H238.276V42.8303H240.112V45.0179H242.236V46.5668H240.112V50.9102C240.112 51.4105 240.203 51.7565 240.384 51.9481C240.575 52.1397 240.905 52.2355 241.374 52.2355H242.252Z" fill="#8B8A8E"/>
<path d="M230.822 44.9062C231.621 44.9062 232.302 45.1032 232.866 45.4971C233.43 45.8909 233.829 46.4126 234.064 47.0619V45.018H235.884V53.8164H234.064V51.7725C233.829 52.4219 233.43 52.9435 232.866 53.3374C232.302 53.7313 231.621 53.9282 230.822 53.9282C230.056 53.9282 229.369 53.7472 228.762 53.3853C228.166 53.0234 227.698 52.5017 227.357 51.8204C227.016 51.1391 226.846 50.3354 226.846 49.4092C226.846 48.4937 227.016 47.6953 227.357 47.014C227.698 46.3327 228.166 45.8111 228.762 45.4492C229.369 45.0872 230.056 44.9062 230.822 44.9062ZM231.381 46.5031C230.572 46.5031 229.923 46.7639 229.433 47.2855C228.954 47.7965 228.714 48.5044 228.714 49.4092C228.714 50.3141 228.954 51.0273 229.433 51.549C229.923 52.0599 230.572 52.3154 231.381 52.3154C231.892 52.3154 232.35 52.1983 232.754 51.9641C233.159 51.7193 233.478 51.3786 233.712 50.9422C233.947 50.5057 234.064 49.9947 234.064 49.4092C234.064 48.8344 233.947 48.3287 233.712 47.8923C233.478 47.4452 233.159 47.1045 232.754 46.8703C232.35 46.6255 231.892 46.5031 231.381 46.5031Z" fill="#8B8A8E"/>
<path d="M225.343 42.7185V53.8163H223.506V45.4969L220.297 53.8163H218.7L215.475 45.4969V53.8163H213.654V42.7185H215.858L219.53 51.5808L223.139 42.7185H225.343Z" fill="#8B8A8E"/>
<path d="M202.088 45.0178L204.723 51.4849L207.166 45.0178H209.194L203.876 57.9999H201.848L203.749 53.6086L200.044 45.0178H202.088Z" fill="#8B8A8E"/>
<path d="M196.732 46.7423C197.03 46.1674 197.456 45.715 198.009 45.385C198.563 45.0443 199.202 44.874 199.926 44.874V46.8541H199.383C198.584 46.8541 197.94 47.051 197.451 47.4449C196.972 47.8281 196.732 48.4668 196.732 49.361V53.8161H194.912V45.0177H196.732V46.7423Z" fill="#8B8A8E"/>
<path d="M188.93 44.9062C189.782 44.9062 190.548 45.0872 191.229 45.4492C191.911 45.8111 192.443 46.3327 192.826 47.014C193.209 47.6953 193.401 48.4937 193.401 49.4092C193.401 50.3354 193.209 51.1391 192.826 51.8204C192.443 52.5017 191.911 53.0234 191.229 53.3853C190.548 53.7472 189.782 53.9282 188.93 53.9282C188.078 53.9282 187.312 53.7472 186.631 53.3853C185.96 53.0234 185.428 52.5017 185.034 51.8204C184.65 51.1285 184.459 50.3247 184.459 49.4092C184.459 48.4937 184.65 47.6953 185.034 47.014C185.428 46.3327 185.96 45.8111 186.631 45.4492C187.312 45.0872 188.078 44.9062 188.93 44.9062ZM188.93 46.4871C188.462 46.4871 188.03 46.5935 187.637 46.8064C187.243 47.0194 186.923 47.3494 186.678 47.7965C186.444 48.2329 186.327 48.7705 186.327 49.4092C186.327 50.0586 186.444 50.6015 186.678 51.038C186.923 51.4744 187.243 51.7991 187.637 52.012C188.03 52.2249 188.462 52.3314 188.93 52.3314C189.398 52.3314 189.829 52.2249 190.223 52.012C190.617 51.7991 190.931 51.4744 191.165 51.038C191.41 50.6015 191.533 50.0586 191.533 49.4092C191.533 48.7705 191.41 48.2329 191.165 47.7965C190.931 47.3494 190.617 47.0194 190.223 46.8064C189.829 46.5935 189.398 46.4871 188.93 46.4871Z" fill="#8B8A8E"/>
<path d="M183.44 52.2355V53.8164H182.323C181.386 53.8164 180.673 53.5928 180.183 53.1457C179.704 52.6879 179.464 51.9321 179.464 50.8782V46.5668H178.203V45.0179H179.464V42.8303H181.301V45.0179H183.424V46.5668H181.301V50.9102C181.301 51.4105 181.391 51.7565 181.572 51.9481C181.764 52.1397 182.094 52.2355 182.562 52.2355H183.44Z" fill="#8B8A8E"/>
<path d="M177.434 50.8143C177.434 51.3679 177.301 51.8842 177.035 52.3632C176.769 52.8316 176.365 53.2095 175.822 53.497C175.279 53.7844 174.613 53.9281 173.826 53.9281C173.059 53.9281 172.373 53.795 171.766 53.5289C171.159 53.2521 170.675 52.8689 170.313 52.3792C169.951 51.8895 169.743 51.3253 169.69 50.6866H171.638C171.691 51.1763 171.899 51.5968 172.261 51.9481C172.633 52.2994 173.128 52.475 173.746 52.475C174.299 52.475 174.725 52.326 175.023 52.0279C175.332 51.7298 175.486 51.3466 175.486 50.8782C175.486 50.4737 175.375 50.1437 175.151 49.8882C174.927 49.6221 174.651 49.4145 174.321 49.2654C173.991 49.1164 173.538 48.9461 172.963 48.7545C172.261 48.5309 171.686 48.3074 171.239 48.0838C170.802 47.8602 170.43 47.5356 170.121 47.1097C169.812 46.6839 169.658 46.1251 169.658 45.4331C169.658 44.8263 169.807 44.294 170.105 43.8363C170.403 43.3785 170.829 43.0272 171.383 42.7824C171.936 42.5269 172.575 42.3992 173.299 42.3992C174.448 42.3992 175.359 42.6759 176.029 43.2295C176.711 43.7831 177.099 44.507 177.195 45.4012H175.231C175.156 44.9754 174.954 44.6134 174.624 44.3153C174.305 44.0066 173.863 43.8523 173.299 43.8523C172.788 43.8523 172.378 43.9853 172.069 44.2515C171.76 44.507 171.606 44.8795 171.606 45.3692C171.606 45.7525 171.713 46.0718 171.925 46.3273C172.138 46.5722 172.404 46.7691 172.724 46.9181C173.054 47.0565 173.501 47.2215 174.065 47.4131C174.778 47.6367 175.359 47.8656 175.806 48.0998C176.263 48.3233 176.647 48.6533 176.955 49.0898C177.275 49.5262 177.434 50.1011 177.434 50.8143Z" fill="#8B8A8E"/>
<path d="M158.459 45.0178L161.094 51.4849L163.537 45.0178H165.565L160.247 57.9999H158.219L160.12 53.6086L156.415 45.0178H158.459Z" fill="#8B8A8E"/>
<path d="M153.103 46.7423C153.401 46.1674 153.827 45.715 154.381 45.385C154.934 45.0443 155.573 44.874 156.297 44.874V46.8541H155.754C154.955 46.8541 154.311 47.051 153.822 47.4449C153.343 47.8281 153.103 48.4668 153.103 49.361V53.8161H151.283V45.0177H153.103V46.7423Z" fill="#8B8A8E"/>
<path d="M149.765 48.9941C149.765 49.2921 149.743 49.553 149.701 49.7765H142.93C142.962 50.6814 143.212 51.352 143.681 51.7885C144.149 52.2249 144.729 52.4432 145.421 52.4432C146.028 52.4432 146.539 52.2888 146.954 51.9801C147.38 51.6714 147.641 51.2615 147.737 50.7506H149.685C149.568 51.368 149.323 51.9162 148.95 52.3953C148.578 52.8743 148.093 53.2522 147.497 53.529C146.901 53.7951 146.236 53.9282 145.501 53.9282C144.65 53.9282 143.894 53.7472 143.234 53.3853C142.584 53.0234 142.073 52.5017 141.701 51.8204C141.328 51.1391 141.142 50.3354 141.142 49.4092C141.142 48.4937 141.328 47.6953 141.701 47.014C142.073 46.3327 142.584 45.8111 143.234 45.4492C143.894 45.0872 144.65 44.9062 145.501 44.9062C146.363 44.9062 147.114 45.0872 147.753 45.4492C148.402 45.8005 148.897 46.2901 149.238 46.9182C149.589 47.5357 149.765 48.2276 149.765 48.9941ZM147.928 48.9462C147.95 48.3713 147.848 47.8923 147.625 47.509C147.412 47.1152 147.114 46.8277 146.731 46.6468C146.358 46.4552 145.948 46.3593 145.501 46.3593C144.788 46.3593 144.192 46.5776 143.713 47.014C143.234 47.4505 142.973 48.0945 142.93 48.9462H147.928Z" fill="#8B8A8E"/>
<path d="M136.05 51.932L138.541 45.0178H140.489L137.136 53.8162H134.932L131.579 45.0178H133.527L136.05 51.932Z" fill="#8B8A8E"/>
<path d="M126.283 44.012V47.4292H130.435V48.8344H126.283V52.3314H130.914V53.8164H124.463V42.543H130.914V44.012H126.283Z" fill="#8B8A8E"/>
<path d="M119.441 48.9941C119.441 49.2921 119.42 49.553 119.378 49.7765H112.607C112.639 50.6814 112.889 51.352 113.358 51.7885C113.826 52.2249 114.406 52.4432 115.098 52.4432C115.705 52.4432 116.216 52.2888 116.631 51.9801C117.057 51.6714 117.318 51.2615 117.414 50.7506H119.362C119.245 51.368 119 51.9162 118.627 52.3953C118.255 52.8743 117.77 53.2522 117.174 53.529C116.578 53.7951 115.913 53.9282 115.178 53.9282C114.326 53.9282 113.571 53.7472 112.911 53.3853C112.261 53.0234 111.75 52.5017 111.378 51.8204C111.005 51.1391 110.819 50.3354 110.819 49.4092C110.819 48.4937 111.005 47.6953 111.378 47.014C111.75 46.3327 112.261 45.8111 112.911 45.4492C113.571 45.0872 114.326 44.9062 115.178 44.9062C116.04 44.9062 116.791 45.0872 117.43 45.4492C118.079 45.8005 118.574 46.2901 118.915 46.9182C119.266 47.5357 119.441 48.2276 119.441 48.9941ZM117.605 48.9462C117.626 48.3713 117.525 47.8923 117.302 47.509C117.089 47.1152 116.791 46.8277 116.408 46.6468C116.035 46.4552 115.625 46.3593 115.178 46.3593C114.465 46.3593 113.869 46.5776 113.39 47.014C112.911 47.4505 112.65 48.0945 112.607 48.9462H117.605Z" fill="#8B8A8E"/>
<path d="M106.948 46.7423C107.246 46.1674 107.672 45.715 108.225 45.385C108.779 45.0443 109.418 44.874 110.141 44.874V46.8541H109.598C108.8 46.8541 108.156 47.051 107.666 47.4449C107.187 47.8281 106.948 48.4668 106.948 49.361V53.8161H105.127V45.0177H106.948V46.7423Z" fill="#8B8A8E"/>
<path d="M103.609 48.9941C103.609 49.2921 103.588 49.553 103.545 49.7765H96.775C96.8069 50.6814 97.0571 51.352 97.5255 51.7885C97.9939 52.2249 98.5741 52.4432 99.266 52.4432C99.8728 52.4432 100.384 52.2888 100.799 51.9801C101.225 51.6714 101.486 51.2615 101.581 50.7506H103.529C103.412 51.368 103.168 51.9162 102.795 52.3953C102.422 52.8743 101.938 53.2522 101.342 53.529C100.746 53.7951 100.08 53.9282 99.3459 53.9282C98.4942 53.9282 97.7384 53.7472 97.0784 53.3853C96.429 53.0234 95.918 52.5017 95.5455 51.8204C95.1729 51.1391 94.9866 50.3354 94.9866 49.4092C94.9866 48.4937 95.1729 47.6953 95.5455 47.014C95.918 46.3327 96.429 45.8111 97.0784 45.4492C97.7384 45.0872 98.4942 44.9062 99.3459 44.9062C100.208 44.9062 100.959 45.0872 101.597 45.4492C102.247 45.8005 102.742 46.2901 103.082 46.9182C103.434 47.5357 103.609 48.2276 103.609 48.9941ZM101.773 48.9462C101.794 48.3713 101.693 47.8923 101.47 47.509C101.257 47.1152 100.959 46.8277 100.575 46.6468C100.203 46.4552 99.793 46.3593 99.3459 46.3593C98.6326 46.3593 98.0365 46.5776 97.5574 47.014C97.0784 47.4505 96.8176 48.0945 96.775 48.9462H101.773Z" fill="#8B8A8E"/>
<path d="M90.1593 44.8743C91.1812 44.8743 92.0009 45.2043 92.6183 45.8643C93.2358 46.5243 93.5445 47.4664 93.5445 48.6906V53.8164H91.7241V48.8822C91.7241 48.0945 91.5219 47.4877 91.1173 47.0619C90.7128 46.6254 90.1593 46.4072 89.4567 46.4072C88.7328 46.4072 88.1526 46.6414 87.7161 47.1098C87.2797 47.5675 87.0614 48.2435 87.0614 49.1377V53.8164H85.2411V42H87.0614V46.9501C87.2956 46.2901 87.6895 45.7791 88.2431 45.4172C88.7966 45.0552 89.4354 44.8743 90.1593 44.8743Z" fill="#8B8A8E"/>
<path d="M83.8503 42.543L81.0399 53.8164H78.8044L76.4252 45.0979L74.0459 53.8164H71.8104L69 42.543H70.996L72.9441 51.7086L75.4192 42.543H77.4311L79.9062 51.7086L81.8543 42.543H83.8503Z" fill="#8B8A8E"/>
<g clip-path="url(#clip0_601_63)">
<path d="M26.6892 63.9999C26.0675 63.9999 25.4459 63.9999 24.8242 63.9999C24.3269 63.1709 24.7414 62.4662 25.1972 61.803C26.5234 59.8963 28.1397 58.2797 29.7559 56.6217C32.947 53.2227 36.4697 50.1553 39.3707 46.4662C42.4374 42.5698 44.924 38.4248 45.5457 33.4092C45.8358 31.1709 45.5457 28.9325 44.7582 26.8185C43.8465 24.3315 41.9816 23.0465 39.3707 22.7978C36.0138 22.4662 32.947 23.1294 30.2947 25.2849C29.5902 25.8652 28.8027 26.404 28.0568 26.9015C27.1036 27.5232 26.0675 27.9377 24.8657 27.9792C23.208 28.0206 22.2962 27.0673 22.4206 25.4092C22.5449 24.0828 23.0836 22.8807 23.7882 21.7616C28.1811 14.9222 38.376 11.7719 45.8358 15.0465C50.5188 17.1191 52.881 20.9325 53.6684 25.8237C54.7874 32.9947 52.9639 39.5025 48.4881 45.1812C43.2663 51.8134 37.0913 57.4921 30.046 62.1346C29.1343 62.7564 28.1811 63.2952 27.1036 63.6268C26.8964 63.6683 26.7721 63.7926 26.6892 63.9999Z" fill="#5D05EC"/>
<path d="M40.4896 0.207381C42.6446 0.787692 44.178 2.07267 45.1312 4.10375C46.8303 7.87577 44.6339 11.7721 40.4896 12.1867C39.1634 12.311 37.8787 12.1867 36.6354 11.8136C33.7344 10.9431 32.2839 8.37318 33.0299 5.43018C33.6515 2.94313 34.9777 1.07785 37.4643 0.207381C38.4589 -0.124225 39.4535 0.000126859 40.4896 0.207381Z" fill="#5D05EC"/>
<path d="M0.24866 34.5284C0.207217 34.6528 0.165774 34.7771 0.165774 34.9429C0.124331 35.1502 0.0828882 35.3989 0.0828882 35.6061C2.58163e-06 36.6839 0.0414454 38.5077 0.0828882 39.6683C0.124331 40.373 0.24866 41.5336 0.497317 42.4041C0.580202 42.6942 0.704531 43.0258 0.787416 43.316C2.07214 47.088 4.6416 49.8652 7.66693 52.2694C12.1013 55.8341 17.033 58.4041 22.7936 58.9844C23.2909 59.0258 23.954 59.2745 24.1612 58.6942C24.4098 58.1139 23.7882 57.7823 23.3738 57.4921C22.0061 56.4144 20.5556 55.544 19.0637 54.6735C16.4528 53.0569 13.7176 51.689 11.3553 49.7409C6.87951 46.0517 5.09747 40.0414 6.87951 34.7771C7.99847 31.544 10.3193 30.0932 13.7176 30.4662C15.3338 30.632 16.9087 30.9637 18.4421 31.5025C19.2709 31.7927 20.1412 32.0828 21.053 32.1243C21.716 32.1243 22.3791 32.1243 22.7936 31.5025C23.2494 30.8393 23.0008 30.1761 22.6692 29.5543C22.0061 28.3937 21.0115 27.6476 19.8511 27.0673C17.1159 25.6165 14.132 25.202 11.1067 25.3678C5.802 25.658 1.49194 29.43 0.24866 34.5284Z" fill="#5D05EC"/>
<path d="M4.18591 16.9533C3.81292 16.9947 3.23272 17.1605 2.90118 17.3678C2.11377 17.8238 1.3678 18.3212 0.746154 18.9844C0.290283 19.4818 0.041626 20.1864 0.041626 20.8497C0.041626 23.0466 1.53357 24.9947 3.64715 25.5336H3.68859C5.63641 25.9896 7.04546 25.3263 8.16442 23.7927C9.11761 22.5077 9.44915 21.1398 8.53741 19.689C7.54278 18.0725 6.34094 16.746 4.18591 16.9533Z" fill="#5D05EC"/>
</g>
<defs>
<clipPath id="clip0_601_63">
<rect width="54" height="64" fill="white"/>
</clipPath>
</defs>
</svg>